<?xml version="1.0" encoding="utf-8"?>
<!-- Generator: Adobe Illustrator 23.0.0, SVG Export Plug-In . SVG Version: 6.00 Build 0)  -->
<svg version="1.1" id="Layer_2" xmlns="http://www.w3.org/2000/svg" xmlns:xlink="http://www.w3.org/1999/xlink" x="0px" y="0px"
	 viewBox="0 0 512 275" style="enable-background:new 0 0 512 275;" xml:space="preserve">
<style type="text/css">
	.st0{filter:url(#Adobe_OpacityMaskFilter);}
	.st1{fill:#fff;}
	.st2{mask:url(#SVGID_1_);fill:var(--up-fill);}
</style>
<defs>
	<filter id="Adobe_OpacityMaskFilter" filterUnits="userSpaceOnUse" x="1.3" y="0.3" width="512" height="275">

			<feColorMatrix  type="matrix" values="-1 0 0 0 1  0 -1 0 0 1  0 0 -1 0 1  0 0 0 1 0" color-interpolation-filters="sRGB" result="source"/>
		<feFlood  style="flood-color:white;flood-opacity:1" result="back"/>
		<feBlend  in="source" in2="back" mode="normal"/>
	</filter>
</defs>
<mask maskUnits="userSpaceOnUse" x="1.3" y="0.3" width="512" height="275" id="SVGID_1_">
	<g class="st0">
		<g>
			<path class="st1" d="M120.9,109.8c-2.6-3.1-5.7-5.5-9.5-7.2c-3.8-1.7-8.1-2.5-13-2.5c-4.9,0-9.5,1-13.7,2.9
				c-4.2,1.9-7.8,4.6-10.9,8c-3.1,3.4-5.5,7.5-7.2,12.2c-1.7,4.7-2.6,9.8-2.6,15.3c0,5.6,0.9,10.7,2.6,15.4
				c1.7,4.7,4.1,8.7,7.1,12.1c3,3.4,6.6,6.1,10.7,8c4.1,1.9,8.5,2.9,13.2,2.9c5.4,0,10.1-1.1,14.3-3.4c4.1-2.2,7.6-5.4,10.3-9.4
				l21.8,16.3c-5,7.1-11.4,12.3-19.2,15.6s-15.7,5-23.9,5c-9.3,0-17.9-1.5-25.7-4.4c-7.8-2.9-14.6-7.1-20.3-12.5
				c-5.7-5.4-10.2-12-13.4-19.7c-3.2-7.7-4.8-16.4-4.8-25.9c0-9.5,1.6-18.2,4.8-25.9s7.6-14.3,13.4-19.7c5.7-5.4,12.5-9.6,20.3-12.5
				c7.8-2.9,16.4-4.4,25.7-4.4c3.4,0,6.9,0.3,10.5,0.9c3.6,0.6,7.2,1.6,10.8,2.9c3.5,1.3,6.9,3.1,10.2,5.4c3.2,2.2,6.2,5,8.7,8.2
				L120.9,109.8z"/>
			<path class="st1" d="M197.4,78.9h21.7l51.8,119h-29.6L231,172.7h-46.2l-9.9,25.2H146L197.4,78.9z M207.5,113.5l-14.5,37h29.1
				L207.5,113.5z"/>
			<path class="st1" d="M282.8,78.9H327c6.2,0,12,0.6,17.5,1.7c5.5,1.1,10.3,3.1,14.4,5.8c4.1,2.7,7.3,6.4,9.7,11.1
				c2.4,4.7,3.6,10.5,3.6,17.6c0,6.9-1.1,12.8-3.4,17.5c-2.2,4.7-5.3,8.5-9.2,11.3c-3.9,2.8-8.6,4.8-13.9,6
				c-5.4,1.2-11.2,1.8-17.5,1.8H309v46.4h-26.2V78.9z M309,129.3h17.5c2.4,0,4.6-0.2,6.8-0.7c2.2-0.4,4.1-1.2,5.9-2.3
				c1.7-1.1,3.1-2.5,4.2-4.4c1.1-1.8,1.6-4.2,1.6-7c0-3-0.7-5.5-2.1-7.3c-1.4-1.8-3.2-3.3-5.4-4.3c-2.2-1-4.6-1.7-7.3-1.9
				c-2.7-0.3-5.3-0.4-7.7-0.4H309V129.3z"/>
			<path class="st1" d="M447.5,108c-2.1-2.7-5-4.7-8.7-6c-3.6-1.3-7.1-1.9-10.3-1.9c-1.9,0-3.9,0.2-5.9,0.7c-2,0.4-3.9,1.2-5.7,2.1
				c-1.8,1-3.3,2.2-4.4,3.8c-1.1,1.6-1.7,3.5-1.7,5.7c0,3.6,1.3,6.3,4,8.2c2.7,1.9,6.1,3.5,10.2,4.9c4.1,1.3,8.5,2.7,13.2,4
				c4.7,1.3,9.1,3.3,13.2,5.7c4.1,2.5,7.5,5.8,10.2,9.9c2.7,4.1,4,9.7,4,16.6c0,6.6-1.2,12.4-3.7,17.3c-2.5,4.9-5.8,9-10,12.3
				c-4.2,3.3-9.1,5.7-14.6,7.2c-5.5,1.6-11.4,2.4-17.6,2.4c-7.7,0-14.9-1.2-21.5-3.5c-6.6-2.4-12.8-6.2-18.5-11.4l18.7-20.5
				c2.7,3.6,6.1,6.4,10.2,8.3c4.1,2,8.3,2.9,12.7,2.9c2.1,0,4.3-0.3,6.5-0.8c2.2-0.5,4.1-1.3,5.9-2.3c1.7-1,3.1-2.3,4.2-3.9
				c1.1-1.6,1.6-3.4,1.6-5.5c0-3.6-1.4-6.4-4.1-8.5c-2.7-2.1-6.2-3.8-10.3-5.3c-4.1-1.5-8.6-2.9-13.4-4.4c-4.8-1.5-9.3-3.4-13.4-5.9
				c-4.1-2.5-7.6-5.7-10.3-9.7c-2.7-4-4.1-9.4-4.1-16c0-6.4,1.3-12,3.8-16.8c2.5-4.8,5.9-8.8,10.1-12.1c4.2-3.2,9-5.7,14.5-7.3
				c5.5-1.6,11.1-2.4,17-2.4c6.7,0,13.2,1,19.5,2.9c6.3,1.9,11.9,5.1,17,9.6L447.5,108z"/>
		</g>
	</g>
</mask>
<path class="st2" d="M477,275.3H36.3c-19.2,0-35-15.8-35-35v-205c0-19.2,15.7-35,35-35l440.7,0c19.3,0,35,15.7,35,35v205
	C512,259.6,496.3,275.3,477,275.3z"/>
</svg>
