<svg id="Layer_1" data-name="Layer 1" xmlns="http://www.w3.org/2000/svg" viewBox="0 0 2.29 64"><defs><style>.cls-1{fill:#231f20;}</style></defs><title>vertical-arrows</title><path class="cls-1" d="M9.09,64c0-12.79-.92-21.31-.92-28.1,0-1,.53-1.58,1.06-1.58s1.07.53,1.07,1.6c0,6.77-1,15.29-1,28.08Z" transform="translate(-8.15 0)"/><path class="cls-1" d="M9.31,33.16A1.17,1.17,0,0,1,8.15,32a1.18,1.18,0,0,1,1.16-1.16m0,0A1.16,1.16,0,0,1,10.44,32a1.13,1.13,0,0,1-1.13,1.16" transform="translate(-8.15 0)"/><path class="cls-1" d="M9.31,0c0,12.82,1,21.31,1,28.1,0,1-.55,1.61-1.07,1.61s-1.06-.56-1.06-1.61c0-6.77.92-15.28.92-28.1Z" transform="translate(-8.15 0)"/></svg>