<svg xmlns="http://www.w3.org/2000/svg" viewBox="0 0 24 24"><path fill="#FFF" d="M9.39,12A3.49,3.49,0,0,0,12,13.07a3.6,3.6,0,0,0,3.62-3.61,3.66,3.66,0,0,0-.28-1.41,3.55,3.55,0,0,0-.78-1.15,3.32,3.32,0,0,0-1.16-.77A3.58,3.58,0,0,0,12,5.84,3.6,3.6,0,0,0,8.34,9.46,3.53,3.53,0,0,0,9.39,12ZM10,7.49a2.76,2.76,0,0,1,3.89,0,2.65,2.65,0,0,1,.82,1.95,2.69,2.69,0,0,1-.82,2,2.72,2.72,0,0,1-3.89,0,2.69,2.69,0,0,1-.82-2A2.65,2.65,0,0,1,10,7.49Z"/><path fill="#FFF" d="M19.4,20a.25.25,0,0,0,0-.17l-1.92-4.72L17.41,15l.08-.1a2.17,2.17,0,0,0,.4-.72c.09-.41.11-.49.11-.51v0h0a3.18,3.18,0,0,1,.81-1.08,2,2,0,0,0,.5-2,4.74,4.74,0,0,1-.21-.93,4.74,4.74,0,0,1,.21-.94,2,2,0,0,0-.5-2,4.34,4.34,0,0,1-.63-.7,4.35,4.35,0,0,1-.3-1,2,2,0,0,0-1.45-1.45l-.55-.14a2.17,2.17,0,0,1-.32-.15A1.09,1.09,0,0,1,15.19,3s-.09-.11-.36-.38A1.84,1.84,0,0,0,13.48,2a2.06,2.06,0,0,0-.59.09A4.09,4.09,0,0,1,12,2.3,4.91,4.91,0,0,1,11,2.09,2.17,2.17,0,0,0,10.43,2a1.83,1.83,0,0,0-1.35.63,4.68,4.68,0,0,1-.71.64,5.2,5.2,0,0,1-.9.29A2,2,0,0,0,6,5a4.35,4.35,0,0,1-.3,1,4.34,4.34,0,0,1-.63.7,2,2,0,0,0-.5,2,4.21,4.21,0,0,1,.2.93,4.33,4.33,0,0,1-.2.93,2,2,0,0,0,.5,2,3.82,3.82,0,0,1,.64.73,5.58,5.58,0,0,1,.29.91,2.17,2.17,0,0,0,.4.72l.08.1,0,.12-1.91,4.7a.41.41,0,0,0,0,.4.42.42,0,0,0,.35.19L7,20.29h.1l.06.07,1.48,1.52A.34.34,0,0,0,9,22a.38.38,0,0,0,.4-.26l2.08-5.15,0-.1.1,0a1.64,1.64,0,0,1,.37,0,1.5,1.5,0,0,1,.37,0l.11,0,0,.1,2.07,5.15a.39.39,0,0,0,.4.26.35.35,0,0,0,.28-.12l1.48-1.53.07-.07h.1l2.11.08a.5.5,0,0,0,.33-.19A.67.67,0,0,0,19.4,20Zm-9.08-2.78L9,20.5l-.12.31-.23-.24c-.48-.51-.85-.9-1.09-1.17-.39,0-.93.05-1.62.08H5.57l.13-.31,1.43-3.5.09-.22.21.11.08,0a6.51,6.51,0,0,1,.8.25,1.7,1.7,0,0,1,.53.42,1.91,1.91,0,0,0,1.3.62l.29,0ZM12,15.51a2,2,0,0,0-1.08.35,1.13,1.13,0,0,1-.66.22,1.12,1.12,0,0,1-.8-.37,2.61,2.61,0,0,0-.66-.58,4.93,4.93,0,0,0-.87-.28,1,1,0,0,1-.22-.09,1.08,1.08,0,0,1-.81-.82,6.27,6.27,0,0,0-.37-1.13,4.2,4.2,0,0,0-.78-.89,1.14,1.14,0,0,1-.29-1.17A5.76,5.76,0,0,0,5.64,9.6a5.66,5.66,0,0,0-.23-1.16,1.19,1.19,0,0,1,.29-1.2,6,6,0,0,0,.79-.88,6.18,6.18,0,0,0,.35-1.14,1.2,1.2,0,0,1,.83-.83A4.25,4.25,0,0,0,8.79,4a5.58,5.58,0,0,0,.9-.8,1,1,0,0,1,.77-.35,1.63,1.63,0,0,1,.36.05A5.5,5.5,0,0,0,12,3.15a5.54,5.54,0,0,0,1.15-.24,1.27,1.27,0,0,1,.34-.05,1.1,1.1,0,0,1,.78.35,6.36,6.36,0,0,0,.89.8,4.61,4.61,0,0,0,1.12.38,1.17,1.17,0,0,1,.83.82,5.69,5.69,0,0,0,.36,1.15,5.93,5.93,0,0,0,.78.87,1.22,1.22,0,0,1,.3,1.21,5.66,5.66,0,0,0-.23,1.16,5.78,5.78,0,0,0,.23,1.16,1.13,1.13,0,0,1-.3,1.16,5,5,0,0,0-.78.89,8.1,8.1,0,0,0-.36,1.13,1.08,1.08,0,0,1-.83.83,9.66,9.66,0,0,0-1.06.34,3,3,0,0,0-.67.59,1.1,1.1,0,0,1-.8.38,1.13,1.13,0,0,1-.67-.23A2.07,2.07,0,0,0,12,15.51Zm6.05,4-1.06-.06-.54,0c-.19.21-.55.6-1.1,1.17l-.23.23L15,20.5l-1.36-3.31-.11-.26.29,0a2,2,0,0,0,1.3-.61,4.68,4.68,0,0,1,.53-.43,7.8,7.8,0,0,1,.84-.27l0,0,.21-.11.09.22,1.43,3.5.13.32Z"/></svg>
