<?xml version="1.0" encoding="utf-8"?>
<!-- Generator: Adobe Illustrator 23.0.3, SVG Export Plug-In . SVG Version: 6.00 Build 0)  -->
<svg version="1.1" xmlns="http://www.w3.org/2000/svg" xmlns:xlink="http://www.w3.org/1999/xlink" x="0px" y="0px"
	 viewBox="0 0 24 24" style="enable-background:new 0 0 24 24;" xml:space="preserve">
<style type="text/css">
	.st0{fill:#FFFFFF;}
</style>
<g id="Layer_2">
</g>
<g id="Layer_1">
	<g>
		<path class="st0" d="M19.4,2c0.7,0,1.3,0.2,1.7,0.7c0.5,0.5,0.7,1.1,0.7,1.7v11.2c0,0.7-0.2,1.3-0.7,1.7s-1.1,0.7-1.7,0.7h-5.6
			L9,21.8c-0.1,0.1-0.2,0.1-0.3,0.1c-0.3,0-0.5-0.2-0.5-0.5v-3.3H4.5c-0.7,0-1.3-0.2-1.7-0.7C2.3,16.9,2,16.3,2,15.6V4.5
			c0-0.7,0.2-1.3,0.7-1.7C3.3,2.2,3.8,2,4.5,2H19.4z M20.7,15.6V4.5c0-0.3-0.1-0.6-0.4-0.9c-0.2-0.2-0.5-0.4-0.9-0.4H4.5
			c-0.3,0-0.6,0.1-0.9,0.4C3.4,3.8,3.3,4.1,3.3,4.5v11.2c0,0.3,0.1,0.6,0.4,0.9c0.2,0.2,0.5,0.4,0.9,0.4h5v3l3.6-2.7l0.3-0.2h6
			c0.3,0,0.6-0.1,0.9-0.4C20.6,16.3,20.7,16,20.7,15.6z M6.3,9.4C6.5,9.2,6.7,9.1,7,9.1c0.3,0,0.5,0.1,0.7,0.3
			c0.2,0.2,0.3,0.4,0.3,0.7c0,0.3-0.1,0.5-0.3,0.7C7.5,10.9,7.3,11,7,11c-0.3,0-0.5-0.1-0.7-0.3c-0.2-0.2-0.3-0.4-0.3-0.7
			C6.1,9.8,6.2,9.6,6.3,9.4z M11.3,9.4c0.2-0.2,0.4-0.3,0.7-0.3s0.5,0.1,0.7,0.3c0.2,0.2,0.3,0.4,0.3,0.7c0,0.3-0.1,0.5-0.3,0.7
			C12.5,10.9,12.2,11,12,11s-0.5-0.1-0.7-0.3c-0.2-0.2-0.3-0.4-0.3-0.7C11,9.8,11.1,9.6,11.3,9.4z M16.3,9.4
			c0.2-0.2,0.4-0.3,0.7-0.3c0.3,0,0.5,0.1,0.7,0.3c0.2,0.2,0.3,0.4,0.3,0.7c0,0.3-0.1,0.5-0.3,0.7c-0.2,0.2-0.4,0.3-0.7,0.3
			c-0.3,0-0.5-0.1-0.7-0.3c-0.2-0.2-0.3-0.4-0.3-0.7C16,9.8,16.1,9.6,16.3,9.4z"/>
	</g>
</g>
</svg>
