<svg xmlns="http://www.w3.org/2000/svg" viewBox="0 0 24 24"><defs><style>.cls-1{fill:#fff;}</style></defs><title>eye</title><g id="Layer_1" data-name="Layer 1"><path class="cls-1" d="M21.75,11.48a1.27,1.27,0,0,1,.1.52,1.34,1.34,0,0,1-.1.52,11.54,11.54,0,0,1-4.07,4.42,10.65,10.65,0,0,1-9.74.9A11.27,11.27,0,0,1,4.55,15.7,11.8,11.8,0,0,1,2.1,12.52,1.34,1.34,0,0,1,2,12a1.27,1.27,0,0,1,.1-.52A11.56,11.56,0,0,1,6.17,7.05a10.52,10.52,0,0,1,5.76-1.67,10.51,10.51,0,0,1,5.75,1.67A11.56,11.56,0,0,1,21.75,11.48ZM6.77,16a9.5,9.5,0,0,0,5.16,1.48A9.5,9.5,0,0,0,17.08,16a10.13,10.13,0,0,0,3.67-4,10,10,0,0,0-1.93-2.53,10.14,10.14,0,0,0-2.55-1.92,5.26,5.26,0,0,1,1.17,3.35,5.31,5.31,0,0,1-1.62,3.89,5.31,5.31,0,0,1-3.89,1.62A5.32,5.32,0,0,1,8,14.79,5.31,5.31,0,0,1,6.41,10.9,5.26,5.26,0,0,1,7.58,7.55,10.5,10.5,0,0,0,5,9.47,10,10,0,0,0,3.1,12,10.21,10.21,0,0,0,6.77,16ZM15,7.78a4.21,4.21,0,0,0-3.11-1.3,4.22,4.22,0,0,0-3.12,1.3,4.22,4.22,0,0,0-1.3,3.12A4.21,4.21,0,0,0,8.81,14a4.22,4.22,0,0,0,3.12,1.3A4.21,4.21,0,0,0,15,14a4.21,4.21,0,0,0,1.3-3.11A4.22,4.22,0,0,0,15,7.78Zm-1.56,4.67-.66.65h-.89a2.22,2.22,0,0,1-2.21-2.2v-.11a1.63,1.63,0,0,0,.59.11,1.52,1.52,0,0,0,1.13-.49,1.56,1.56,0,0,0,.49-1.13,1.63,1.63,0,0,0-.11-.59h.11a2.2,2.2,0,0,1,1.55,3.76Z"/></g></svg>